<?xml version="1.0" encoding="UTF-8"?>
<svg id="Layer_2" data-name="Layer 2" xmlns="http://www.w3.org/2000/svg" viewBox="0 0 959.5 980.5">
  <defs>
    <style>
      .cls-1 {
        fill: #619bbd;
      }
    </style>
  </defs>
  <g id="Layer_1-2" data-name="Layer 1">
    <path class="cls-1" d="M959.5,980.5c-1.08-.02-2.16-.06-3.24-.06-93.11,0-186.22-.01-279.33,.06-2.38,0-3.66-.77-4.98-2.7-55.51-80.87-111.08-161.69-166.64-242.52-30.52-44.4-61.02-88.8-91.54-133.2-.46-.67-.97-1.31-1.64-2.22-1.97,2.26-3.81,4.36-5.64,6.48-98.11,114.04-196.22,228.08-294.33,342.11-8.69,10.1-17.36,20.21-26.12,30.24-.76,.87-2.16,1.67-3.26,1.67-26.98,.09-53.97,.07-80.95,.07-.4,0-.8-.05-1.77-.1,125.01-145.28,249.75-290.24,374.53-435.26-6.24-9.08-12.36-18-18.48-26.92-31.88-46.39-63.76-92.78-95.64-139.17-36.22-52.7-72.45-105.39-108.67-158.09C113.36,164.97,74.94,109.03,36.51,53.1,24.34,35.4,12.17,17.7,0,0c95.28,0,190.57,0,285.85,0,.48,.77,.94,1.57,1.46,2.32,31.49,45.84,62.99,91.67,94.49,137.51,46.87,68.2,93.74,136.4,140.62,204.6,3.62,5.27,7.26,10.52,11.01,15.97,1.6-1.84,3.03-3.45,4.43-5.08,74.49-86.57,148.98-173.14,223.46-259.72C788.74,63.74,816.15,31.87,843.56,0c28.15,0,56.3,0,84.46,0-.55,.72-1.07,1.47-1.66,2.16-54.57,63.43-109.14,126.86-163.71,190.28-63.26,73.52-126.52,147.04-189.82,220.53-1.32,1.53-1.64,2.52-.35,4.39,36.05,52.31,72.03,104.68,108.01,157.04,39.14,56.96,78.27,113.93,117.42,170.89,49.8,72.47,99.61,144.93,149.43,217.39,4,5.81,8.11,11.55,12.17,17.32v.5ZM115.26,63.69c.75,1.16,1.17,1.86,1.64,2.54,67.14,96.02,134.28,192.03,201.42,288.05,72.1,103.11,144.2,206.23,216.3,309.35,59.17,84.62,118.35,169.23,177.48,253.88,1.09,1.55,2.18,2.13,4.06,2.12,41.48-.05,82.96-.04,124.43-.04h2.81c-.65-1.06-1.03-1.77-1.49-2.42-54.2-77.53-108.4-155.06-162.61-232.58-65.33-93.42-130.67-186.84-195.99-280.26-78.93-112.87-157.85-225.74-236.73-338.65-1.12-1.6-2.3-2.02-4.12-2.02-41.39,.04-82.79,.03-124.18,.03-.82,0-1.63,0-3.02,0Z"/>
  </g>
</svg>